<?xml version="1.0" encoding="utf-8" ?><svg xmlns="http://www.w3.org/2000/svg" xmlns:xlink="http://www.w3.org/1999/xlink" width="896" height="1152" viewBox="0 0 896 1152"><path fill="#FEFEFE" d="M459.81 581.475C459.889 581.152 459.973 580.83 460.062 580.509C463.182 569.382 472.227 554.367 478.84 544.954C515.658 492.551 568.986 467.327 629.617 452.627C653.089 446.937 684.365 444.051 704.17 433.018C712.077 442.092 720.38 457.422 728.336 467.301C731.278 466.674 734.094 466.789 737.101 466.775C744.18 466.784 751.579 466.905 758.63 466.755C774.151 491.999 790.042 509.628 807.936 532.854C830.03 560.952 850.012 590.648 867.719 621.698C815.542 597.74 717.621 591.55 660.445 598.524C627.056 602.53 594.277 610.572 562.826 622.474C537.948 631.689 499.158 650.234 479.328 668.283C478.516 675.926 478.221 682.381 471.521 687.674C458.478 697.979 431.836 696.673 420.967 683.562C418.154 680.169 417.221 672.999 416.683 668.679C339.912 606.683 226.09 587.746 130.029 598.484C92.3578 602.696 63.5644 607.833 28.5351 621.727C46.6205 590.634 66.7584 560.782 88.8149 532.368C106.535 509.113 121.574 492.339 137.886 467.099C144.829 466.977 151.773 466.912 158.718 466.903C149.181 482.705 135.525 499.805 125.241 515.35C122.74 519.131 113.791 531.263 112.044 534.846C111.423 540.099 111.176 543.425 111.858 548.67C112.746 549.617 112.205 549.334 113.583 549.448L113.851 551.137C116.443 551.114 133.564 546.395 137.508 545.508C149.689 542.769 161.296 540.473 173.845 539.587C242.642 534.73 331.522 554.926 390.198 591.423C398.763 596.798 406.934 602.776 414.649 609.312C417.82 612.019 422.722 616.868 425.696 619.153C431.318 625.35 440.322 636.857 449.66 635.275C457.503 633.945 463.508 624.079 469.242 619.209C479.441 607.839 490.712 595.941 503.11 586.598C556.735 546.189 629.924 522.348 696.793 520.454C710.229 520.073 725.798 521.72 738.886 523.344C734.426 515.103 727.965 505.366 722.846 497.396L699.012 460.413C670.979 459.409 636.624 465.366 609.872 473.115C551.232 490.102 489.909 526.499 459.81 581.475Z"/><path fill="#031B7E" d="M737.101 466.775C744.18 466.784 751.579 466.905 758.63 466.755C774.151 491.999 790.042 509.628 807.936 532.854C830.03 560.952 850.012 590.648 867.719 621.698C815.542 597.74 717.621 591.55 660.445 598.524C627.056 602.53 594.277 610.572 562.826 622.474C537.948 631.689 499.158 650.234 479.328 668.283C478.516 675.926 478.221 682.381 471.521 687.674C458.478 697.979 431.836 696.673 420.967 683.562C418.154 680.169 417.221 672.999 416.683 668.679C339.912 606.683 226.09 587.746 130.029 598.484C92.3578 602.696 63.5644 607.833 28.5351 621.727C46.6205 590.634 66.7584 560.782 88.8149 532.368C106.535 509.113 121.574 492.339 137.886 467.099C144.829 466.977 151.773 466.912 158.718 466.903C149.181 482.705 135.525 499.805 125.241 515.35C122.74 519.131 113.791 531.263 112.044 534.846C109.204 538.086 103.23 547.355 100.658 551.179C93.2745 562.184 85.9527 573.231 78.6936 584.318C105.662 577.795 132.299 572.713 160.564 571.824C245.365 569.154 335.13 588.802 407.031 634.916C416.382 641.454 425.654 649.044 432.683 658.232C437.877 665.021 443.322 679.244 455.024 670.535C458.438 667.993 460.73 661.749 463.568 658.175C471.134 648.647 480.523 640.799 490.809 634.339C564.215 587.481 654.861 568.29 741.26 572.445C766.331 573.65 792.325 578.47 816.702 583.797C808.336 567.598 790.325 542.074 779.571 526.978C765.237 507.037 751.079 486.968 737.101 466.775Z"/><path fill="#031B7E" d="M459.81 581.475C459.889 581.152 459.973 580.83 460.062 580.509C463.182 569.382 472.227 554.367 478.84 544.954C515.658 492.551 568.986 467.327 629.617 452.627C653.089 446.937 684.365 444.051 704.17 433.018C712.077 442.092 720.38 457.422 728.336 467.301C746.561 494.276 767.167 523.547 782.493 551.938C767.599 547.394 746.54 541.351 730.823 540.136C646.236 533.6 555.673 555.116 486.622 605.433C481.387 609.247 474.293 616.252 469.242 619.209C479.441 607.839 490.712 595.941 503.11 586.598C556.735 546.189 629.924 522.348 696.793 520.454C710.229 520.073 725.798 521.72 738.886 523.344C734.426 515.103 727.965 505.366 722.846 497.396L699.012 460.413C670.979 459.409 636.624 465.366 609.872 473.115C551.232 490.102 489.909 526.499 459.81 581.475Z"/><path fill="#031B7E" d="M450.242 225.257C454.433 228.296 488.806 291.417 493.422 299.73C523.04 299.946 552.658 299.956 582.276 299.761C568.27 325.685 551.235 350.197 537.555 376.623C551.009 401.211 566.53 425.357 580.215 450.481C552.114 450.519 521.447 451.096 493.482 450.237C489.414 458.1 483.302 467.7 478.663 475.48C468.769 491.912 459 508.419 449.356 524.999C444.739 519.22 436.128 503.815 432.142 496.91C423.184 481.491 414.34 466.006 405.61 450.456C378.087 449.772 347.691 450.708 320.008 450.881C322.728 444.422 330.066 432.42 333.9 425.813L363.516 375.261C358.908 366.287 352.771 356.191 347.647 347.369L319.53 299.376C348.591 299.034 377.853 299.776 407.051 299.553C420.833 274.435 435.235 249.662 450.242 225.257ZM395.726 378.407C403.571 393.58 413.011 409.41 421.65 424.174C427.533 424.152 474.862 424.834 477.785 423.935C486.087 409.201 495.786 391.054 504.793 377.056C496.188 360.786 486.764 345.114 478.282 329.185C461.246 329.323 439.828 329.987 423.197 329.135C413.817 345.297 404 361.695 395.726 378.407ZM509.26 424.585L522.667 424.722L532.838 424.73C529.524 418.043 524.988 409.968 520.892 403.722C517.187 410.265 512.575 417.952 509.26 424.585ZM366.578 425.229C370.549 425.045 373.806 424.909 377.808 425.055L389.828 424.692C386.469 418.057 382.663 410.075 378.806 403.85C374.483 410.944 370.313 417.798 366.578 425.229ZM382.788 341.624C384.894 337.732 387.13 333.38 389.38 329.612C382.278 329.49 374.767 329.231 367.698 329.258C371.255 335.885 374.948 342.438 378.775 348.912L382.788 341.624ZM508.714 328.798C511.953 335.397 517.232 344.251 521.108 350.697L525.548 342.925C528.086 338.342 530.695 333.763 532.982 329.053C524.894 328.879 516.804 328.794 508.714 328.798ZM451.433 276.64C447.296 284.137 443.296 291.707 439.432 299.348C444.164 299.391 449.09 299.507 453.804 299.471L463.456 299.754C460.861 293.969 455.118 281.427 451.433 276.64ZM435.204 449.555C439.393 458.404 443.782 465.839 448.828 474.247L453.545 466.115C456.291 461.174 459.572 455.586 462.117 450.611C453.569 450.078 443.823 449.576 435.204 449.555Z"/><path fill="#031B7E" d="M191.904 432.485C208.274 442.472 218.123 443.024 236.484 446.097C246.043 447.68 255.541 449.613 264.958 451.892C326.508 466.946 380.647 492.277 418.296 545.402C424.991 554.85 434.157 570.894 437.679 581.989C428.378 568.137 422.863 558.885 411.029 546.143C370.376 502.37 312.922 476.81 254.951 465.693C235.912 462.042 216.171 459.744 196.859 460.341C189.032 473.071 181.098 485.735 173.057 498.331C168.025 506.266 161.921 515.383 157.54 523.561C167.998 522.08 183.25 520.265 193.974 520.493C261.349 521.925 334.147 542.638 388.593 583.237C398.342 590.506 419.725 609.016 425.696 619.153C422.722 616.868 417.82 612.019 414.649 609.312C406.934 602.776 398.763 596.798 390.198 591.423C331.522 554.926 242.642 534.73 173.845 539.587C161.296 540.473 149.689 542.769 137.508 545.508C133.564 546.395 116.443 551.114 113.851 551.137L113.583 549.448C116.525 546.203 130.888 522.495 134.26 517.327C145.81 499.943 157.463 482.627 169.219 465.381C175.808 455.675 184.923 441.617 191.904 432.485Z"/><path fill="#031B7E" d="M418.189 736.698C419.894 738.562 420.447 740.98 421.288 743.433C433.3 744.511 448.021 744.308 460.52 744.833C464.887 747.832 466.329 749.848 467.111 755.023C468.318 763.017 468.007 771.139 468.005 779.206L467.959 814.891L460.234 814.694C446.259 814.636 432.283 814.701 418.31 814.889C417.839 798.175 415.909 777.775 422.122 762.487C407.781 761.718 414.349 744.611 418.189 736.698ZM423.557 797.72L452.64 797.752L461.815 797.787C462.363 763.059 468.27 761.754 432.73 762.245C420.489 764.674 423.273 788.08 423.557 797.72Z"/><path fill="#031B7E" d="M769.715 736.373C771.265 738.191 771.845 740.429 772.673 742.719C785.618 746.426 796.291 742.695 807.588 744.485C834.725 748.786 821.227 800.274 809.478 813.104L775.79 816.103C772.981 804.62 770.977 794.693 772.977 782.646C774.069 776.074 779.488 769.568 778.77 764.415C777.174 763.036 772.464 763.112 770.033 762.131C760.061 758.107 766.789 743.544 769.715 736.373ZM785.328 762.974C782.86 768.322 772.398 792.49 780.298 796.237C784.053 798.017 796.205 796.82 801.084 796.685C805.267 796.603 807.809 796.51 811.781 794.976C816.525 788.31 818.455 780.044 817.154 771.966C815.062 759.69 804.233 761.955 794.799 762.415L785.328 762.974Z"/><path fill="#031B7E" d="M275.786 735.498C277.023 738.853 277.671 740.335 279.359 743.481C283.532 745.894 288.744 746.423 290.93 751.231C294.633 759.374 288.821 765.913 286.215 773.09C285.514 775.019 285.955 775.901 286.734 777.417C290.934 780.242 302.461 777.845 307.823 777.193C309.358 773.308 309.974 770.943 310.998 766.857C306.667 764.353 301.554 762.007 299.644 757.078C297.159 750.669 300.816 740.874 303.485 734.981C306.137 747.655 307.643 743.407 315.319 749.336C323.898 755.962 315.62 779.518 306.574 784.25C300.571 787.39 289.306 790.757 286.708 794.449C286.351 796.666 287.546 798.833 289.688 798.345C304.534 794.961 324.863 791.462 335.107 779.784C341.538 768.155 337.112 764.622 326.828 759.857C323.144 749.964 325.558 744.561 329.102 735.05C330.378 738.659 331.199 740.607 332.896 744.031C339.688 746.972 345.559 749.19 344.704 757.782C343.408 770.82 337.229 797.409 327.893 806.472C314.377 810.663 299.616 813.876 285.749 818.122C282.956 801.645 278.349 779.616 283.517 763.818C266.306 759.08 270.456 748.373 275.786 735.498Z"/><path fill="#031B7E" d="M146.305 736.066C147.919 738.54 147.898 740.788 150.373 743.443C159.338 753.061 169.155 762.058 178.387 771.428C180.777 773.855 185.445 771.546 186.427 769.301C188.974 763.485 179.301 758.074 177.808 752.922C176.673 747.883 180.707 740.243 183.038 736.028C188.87 748.475 191.801 744.575 199.162 752.8C204.887 759.198 188.805 774.658 183.594 777.811C187.931 783.916 195.133 791.781 200.187 797.573L196.552 817.24C193.953 814.184 191.001 809.256 188.767 805.769C183.775 798.19 162.962 772.594 154.661 771.829C147.482 774.632 151.795 792.863 152.683 798.765L171.416 798.62C172.054 805.765 171.775 808.14 169.431 814.881L136.823 814.946C140.301 802.258 141.889 790.279 145.304 777.86C146.063 775.101 149.678 769.196 151.249 766.033C147.557 762.977 143.469 761.068 139.23 758.907C141.35 749.828 142.847 744.713 146.305 736.066Z"/><path fill="#031B7E" d="M486.311 736.151C487.39 737.219 489.114 742.44 489.948 743.054C504.593 753.835 507.959 748.626 500.549 769.336C502.872 774.776 507.782 782.969 512.398 786.744C517.54 790.441 522.998 781.377 524.913 778.076C533.013 764.109 515.697 763.31 513.596 752.594C512.453 746.765 516.153 740.56 519.453 735.882C524.936 757.431 544.864 736.901 528.711 777.54C510.616 817.977 507.219 802.357 476.925 819.223C478.401 800.516 476.495 800.72 494.962 794.632C498.087 793.602 501.145 792.467 503.559 790.119C504.53 787.404 493.85 768.079 491.962 763.814C475.631 759.325 481.028 747.611 486.311 736.151Z"/><path fill="#031B7E" d="M79.4489 715.857C82.3472 721.256 86.2731 724.527 88.3781 728.628C89.1561 730.144 83.9939 739.598 85.1928 742.652C96.3331 751.685 139.994 724.748 125.162 780.133C121.27 794.665 103.803 800.339 102.442 812.115L102.435 812.624C102.394 814.876 102.602 815.617 101.115 817.052C99.3481 815.797 99.2884 813.903 98.6979 811.945C92.2983 790.729 126.721 788.118 121.414 768.627C118.013 756.132 90.6737 766.342 82.3608 760.721C74.8322 755.631 79.6595 741.739 79.4026 734.444C79.2888 731.18 77.6071 725.664 76.7925 722.501C77.5641 719.686 78.194 718.477 79.4489 715.857Z"/><path fill="#031B7E" d="M672.163 736.642C673.914 738.588 674.534 740.959 675.393 743.428C680.379 744.437 685.648 744.435 690.703 744.533C709.736 744.904 721.699 736.905 723.629 761.898C720.439 762.179 714.074 762.887 712.376 765.369C709.162 770.066 713.151 782.936 714.096 787.726C715.641 795.542 716.508 803.477 716.688 811.443L716.741 819.087C715.778 817.802 714.876 816.471 714.038 815.1C703.747 798.421 704.512 781.547 708.796 763.19C690.446 759.146 656.105 772.602 672.163 736.642Z"/><path fill="#031B7E" d="M214.083 736.608C215.38 737.679 216.889 741.223 217.764 742.97C229.523 746.318 243.256 742.321 254.727 745.173C269.934 748.954 258.722 764.08 256.597 771.732C261.733 790.548 262.904 797.391 264.178 816.55L263.66 817.046C261.752 816.243 259.661 811.927 258.534 810.086C249.676 795.631 252.313 779.366 254.027 763.415C235.23 758.245 199.146 775.011 214.083 736.608Z"/><path fill="#031B7E" d="M577.661 736.602C578.966 737.743 579.965 741.238 580.63 743.051C600.249 748.682 623.508 732.983 626.432 759.972C624.622 763.879 623.109 766.954 621.863 771.11C625.419 785.812 625.013 800.915 624.616 815.958L623.887 816.133C612.034 810.325 619.613 767.906 617.413 765.08C608.416 753.521 560.555 779.674 577.661 736.602Z"/><path fill="#031B7E" d="M639.651 736.656C640.941 738.159 641.86 741.033 643.218 742.425C646.164 745.438 651.756 744.589 655.055 746.612C664.575 752.45 657.505 766.829 656.326 775.445C655.408 782.156 658.03 812.312 655.603 815.921L654.586 815.875C642.299 798.93 654.066 781.219 651.341 765.406C650.494 760.491 625.861 765.321 639.651 736.656Z"/><path fill="#031B7E" d="M358.924 736.081C364.788 747.849 365.022 742.445 374.426 746.841C384.433 751.518 374.15 776.807 370.531 782.767C368.272 782.392 367.9 782.248 367.016 780.243C367.221 775.049 372.343 770.111 370.225 765.253C368.12 763.472 364.681 762.748 362.023 761.756C350.744 757.547 354.868 744.535 358.924 736.081Z"/><path fill="#031B7E" d="M735.885 736.625C737.516 738.14 737.822 741.337 739.143 742.524C741.821 745.148 748.262 745.106 751.08 746.753C761.304 752.727 751.833 774.967 748.145 782.44C746.361 782.321 745.006 782.239 744.095 780.774C744.262 775.358 752.546 766.065 743.603 762.908C739.867 761.588 733.515 761.004 732.32 756.408C730.749 750.367 733.498 742.129 735.885 736.625Z"/></svg>